<svg xmlns="http://www.w3.org/2000/svg" fill="none" viewBox="0 0 128 128" id="Datadog-Icon--Streamline-Svg-Logos" height="128" width="128">
  <desc>
    Datadog Icon Streamline Icon: https://streamlinehq.com
  </desc>
  <path fill="#632ca6" d="m103.53213333333333 90.31653333333333 -10.425866666666666 -6.8781333333333325 -8.697466666666667 14.528666666666666 -10.115733333333333 -2.9570666666666665 -8.9068 13.594266666666666 0.45626666666666665 4.278533333333333 48.42946666666666 -8.924533333333333 -2.8129333333333335 -30.260266666666666 -7.9269333333333325 16.618533333333332Zm-45.16226666666666 -13.045199999999998 7.770933333333333 -1.0685333333333333c1.2564 0.5649333333333333 2.1314666666666664 0.7801333333333332 3.6386666666666665 1.1634666666666666 2.3486666666666665 0.6102666666666666 5.064666666666667 1.1970666666666667 9.088533333333332 -0.8297333333333332 0.9362666666666667 -0.46413333333333334 2.8878666666666666 -2.2478666666666665 3.676133333333333 -3.2652l31.834533333333333 -5.773866666666667 3.2474666666666665 39.30533333333333 -54.5412 9.8292 -4.715066666666667 -39.36066666666666Zm59.13386666666666 -14.1632 -3.1428 0.5985333333333334L108.32426666666666 1.3333333333333333 5.458333333333333 13.260453333333333 18.132133333333332 116.10066666666667l12.041733333333333 -1.748133333333333c-0.962 -1.3729333333333333 -2.4593333333333334 -3.034133333333333 -5.015466666666667 -5.159599999999999 -3.545733333333333 -2.9452 -2.293333333333333 -7.950799999999999 -0.19946666666666668 -11.111333333333334 2.7674666666666665 -5.339333333333333 17.027466666666665 -12.124666666666666 16.219466666666666 -20.658133333333332 -0.2904 -3.1031999999999997 -0.7821333333333333 -7.1408 -3.664266666666667 -9.910266666666665 -0.10853333333333333 1.1496 0.08693333333333332 2.2538666666666662 0.08693333333333332 2.2538666666666662s-1.1831999999999998 -1.5091999999999999 -1.7718666666666665 -3.5654666666666666c-0.5846666666666667 -0.7901333333333334 -1.0449333333333333 -1.0410666666666666 -1.6671999999999998 -2.0958666666666668 -0.44439999999999996 1.2187999999999999 -0.3852 2.6332 -0.3852 2.6332s-0.9678666666666667 -2.2854666666666663 -1.1239999999999999 -4.215466666666666c-0.5728 0.8632 -0.7169333333333332 2.5027999999999997 -0.7169333333333332 2.5027999999999997s-1.2564 -3.603066666666667 -0.97 -5.5447999999999995c-0.5728 -1.6889333333333332 -2.2736 -5.041066666666667 -1.7935999999999999 -12.657999999999998 3.1388 2.1985333333333332 10.050533333333332 1.6770666666666667 12.742933333333333 -2.291333333333333 0.8929333333333332 -1.3155999999999999 1.5072 -4.902799999999999 -0.44639999999999996 -11.974533333333333 -1.2542666666666666 -4.5334666666666665 -4.3595999999999995 -11.2852 -5.5704 -13.8472l-0.14426666666666665 0.10466666666666666c0.6379999999999999 2.0642666666666667 1.9536 6.3882666666666665 2.4593333333333334 8.488133333333334 1.5289333333333333 6.360533333333334 1.9377333333333333 8.576933333333333 1.2207999999999999 11.510266666666666 -0.6103999999999999 2.550133333333333 -2.074133333333333 4.2173333333333325 -5.7838666666666665 6.082133333333333 -3.7097333333333333 1.8705333333333334 -8.634266666666665 -2.6825333333333328 -8.9444 -2.9334666666666664 -3.6049333333333333 -2.872133333333333 -6.3941333333333334 -7.555599999999999 -6.704266666666666 -9.8332 -0.32399999999999995 -2.4909333333333334 1.4361333333333333 -3.9862666666666664 2.3230666666666666 -6.0228 -1.2701333333333333 0.36146666666666666 -2.684533333333333 1.0073333333333332 -2.684533333333333 1.0073333333333332s1.6889333333333332 -1.748133333333333 3.770933333333333 -3.2592c0.8632 -0.5709333333333333 1.3689333333333331 -0.9343999999999999 2.2775999999999996 -1.6889333333333332 -1.3155999999999999 -0.02173333333333333 -2.3842666666666665 0.015733333333333332 -2.3842666666666665 0.015733333333333332s2.1945333333333332 -1.1852 4.468266666666667 -2.0484c-1.6633333333333333 -0.07306666666666667 -3.2573333333333334 -0.011866666666666666 -3.2573333333333334 -0.011866666666666666s4.8968 -2.1906666666666665 8.762533333333334 -3.796533333333333c2.6588 -1.0903999999999998 5.256399999999999 -0.7685333333333333 6.716133333333333 1.3432 1.9161333333333332 2.7654666666666667 3.9290666666666665 4.266666666666667 8.193733333333332 5.197066666666666 2.619333333333333 -1.1614666666666666 3.4134666666666664 -1.7559999999999998 6.7044 -2.6548 2.8958666666666666 -3.1862666666666666 5.169466666666667 -3.5970666666666666 5.169466666666667 -3.5970666666666666s-1.128 1.0350666666666666 -1.4301333333333333 2.6606666666666667c1.6414666666666666 -1.2937333333333334 3.4409333333333336 -2.3742666666666663 3.4409333333333336 -2.3742666666666663s-0.6972 0.8592 -1.3470666666666666 2.2261333333333333l0.15 0.22519999999999998c1.9161333333333332 -1.1496 4.167999999999999 -2.0542666666666665 4.167999999999999 -2.0542666666666665s-0.6438666666666666 0.8137333333333332 -1.3985333333333332 1.8666666666666665c1.446 -0.011866666666666666 4.375466666666666 0.061200000000000004 5.513199999999999 0.1896 6.714133333333333 0.14813333333333334 8.1068 -7.168519999999999 10.682666666666666 -8.087053333333333 3.225733333333333 -1.1516133333333332 4.667733333333333 -1.84892 10.165066666666666 3.55172 4.715199999999999 4.638 8.4012 12.934533333333334 6.57 14.793333333333333 -1.5348 1.5426666666666666 -4.561066666666666 -0.6025333333333334 -7.9152 -4.7824 -1.7718666666666665 -2.2142666666666666 -3.1130666666666666 -4.8316 -3.7413333333333334 -8.158133333333332 -0.5293333333333333 -2.8069333333333333 -2.5915999999999997 -4.4346266666666665 -2.5915999999999997 -4.4346266666666665s1.1950666666666665 2.66676 1.1950666666666665 5.0154266666666665c0 1.2839999999999998 0.15999999999999998 6.081999999999999 2.2184 8.776399999999999 -0.20346666666666668 0.3930666666666667 -0.2984 1.9477333333333333 -0.5234666666666666 2.246 -2.3941333333333334 -2.8938666666666664 -7.536 -4.9639999999999995 -8.375466666666666 -5.574399999999999 2.838533333333333 2.324933333333333 9.361066666666666 7.666266666666666 11.865866666666665 12.788266666666667 2.3704 4.8416 0.9738666666666667 9.280266666666666 2.1727999999999996 10.427866666666667 0.3417333333333333 0.32786666666666664 5.096399999999999 6.254 6.011066666666666 9.230799999999999 1.596 5.1872 0.0948 10.6412 -1.9931999999999999 14.022933333333334l-5.8332 0.9086666666666666c-0.8533333333333333 -0.23706666666666668 -1.4281333333333333 -0.35559999999999997 -2.1925333333333334 -0.798 0.42266666666666663 -0.7466666666666667 1.2602666666666666 -2.6074666666666664 1.2681333333333331 -2.9926666666666666l-0.32986666666666664 -0.5768c-1.8153333333333332 2.5718666666666667 -4.855466666666667 5.068666666666666 -7.381866666666667 6.502800000000001 -3.3068 1.8746666666666665 -7.1172 1.5842666666666665 -9.598266666666666 0.8178666666666665 -7.04 -2.170933333333333 -13.698933333333333 -6.929599999999999 -15.304933333333333 -8.18 0 0 -0.049333333333333326 0.9975999999999999 0.25293333333333334 1.2227999999999999 1.7738666666666667 2.002933333333333 5.841066666666666 5.623733333333334 9.774 8.150266666666667l-8.381466666666666 0.9223999999999999 3.9625333333333335 30.848933333333335c-1.7559999999999998 0.25093333333333334 -2.0306666666666664 0.3753333333333333 -3.9526666666666666 0.6479999999999999 -1.6947999999999999 -5.987333333333333 -4.9364 -9.896533333333332 -8.480133333333333 -12.174133333333332 -3.1249333333333333 -2.0089333333333332 -7.435199999999999 -2.4612 -11.559733333333334 -1.6434666666666664l-0.26466666666666666 0.3081333333333333c2.868266666666666 -0.2982666666666667 6.254 0.11666666666666665 9.732533333333333 2.3190666666666666 3.4134666666666664 2.1590666666666665 6.165066666666666 7.735466666666666 7.1784 11.0916 1.2978666666666667 4.2904 2.1946666666666665 8.881066666666666 -1.2977333333333334 13.746399999999998 -2.4830666666666668 3.4588 -9.732533333333333 5.368933333333333 -15.591466666666665 1.2345333333333333 1.5645333333333333 2.5166666666666666 3.6781333333333333 4.572933333333333 6.526533333333333 4.960133333333333 4.2272 0.5748 8.2392 -0.15999999999999998 11.000666666666667 -2.9946666666666664 2.3566666666666665 -2.4237333333333333 3.6089333333333333 -7.4924 3.279066666666666 -12.829866666666668l3.7314666666666665 -0.5411999999999999 1.3472 9.5804 61.75906666666666 -7.4370666666666665 -5.039066666666667 -49.15453333333333ZM79.92866666666666 37.09093333333333c-0.17173333333333332 0.3930666666666667 -0.44439999999999996 0.6518666666666666 -0.03746666666666666 1.9318666666666666l0.023733333333333332 0.07319999999999999 0.0652 0.16586666666666666 0.16986666666666667 0.3832c0.7327999999999999 1.4993333333333334 1.5368 2.9117333333333333 2.8839999999999995 3.6346666666666665 0.34759999999999996 -0.05933333333333333 0.7090666666666667 -0.0988 1.0823999999999998 -0.11653333333333334 1.2642666666666666 -0.05533333333333333 2.0622666666666665 0.14413333333333334 2.566 0.41679999999999995 0.04546666666666666 -0.25293333333333334 0.05533333333333333 -0.6202666666666666 0.027733333333333332 -1.1634666666666666 -0.0988 -1.8983999999999999 0.3752 -5.1259999999999994 -3.2731999999999997 -6.8248 -1.3767999999999998 -0.6381333333333333 -3.3086666666666664 -0.4425333333333333 -3.9526666666666666 0.35546666666666665 0.11653333333333334 0.015866666666666668 0.22119999999999998 0.039599999999999996 0.30426666666666663 0.0672 0.9757333333333333 0.33773333333333333 0.31599999999999995 0.6736 0.14013333333333333 1.0765333333333333Zm10.228399999999999 17.710933333333333c-0.478 -0.26466666666666666 -2.7141333333333333 -0.15999999999999998 -4.286533333333333 0.027733333333333332 -2.994533333333333 0.35346666666666665 -6.228266666666666 1.3905333333333332 -6.935466666666667 1.9437333333333333 -1.2878666666666665 0.9954666666666667 -0.7031999999999999 2.7298666666666667 0.24893333333333334 3.442933333333333 2.6686666666666667 1.9931999999999999 5.007466666666666 3.3303999999999996 7.474666666666666 3.0045333333333333 1.5152 -0.19946666666666668 2.8524 -2.5995999999999997 3.7986666666666666 -4.7764 0.6478666666666666 -1.4993333333333334 0.6478666666666666 -3.1170666666666667 -0.3002666666666667 -3.642533333333333ZM63.645999999999994 39.4396c0.8434666666666667 -0.802 -4.205466666666666 -1.8548 -8.124533333333332 0.8178666666666665 -2.8899999999999997 1.9713333333333332 -2.9827999999999997 6.198533333333334 -0.21533333333333332 8.594666666666665 0.2765333333333333 0.23706666666666668 0.5055999999999999 0.40493333333333337 0.7170666666666665 0.5431999999999999 0.8078666666666666 -0.3812 1.7284 -0.7644 2.789066666666667 -1.1081333333333332 1.7897333333333334 -0.5808 3.279066666666666 -0.8809333333333332 4.5018666666666665 -1.0409333333333333 0.5846666666666667 -0.6538666666666666 1.2661333333333333 -1.8054666666666668 1.0962666666666667 -3.8914666666666666 -0.23306666666666667 -2.8306666666666667 -2.3742666666666663 -2.3822666666666663 -0.7644 -3.9151999999999996Z" stroke-width="1.3333"></path>
</svg>