<svg xmlns="http://www.w3.org/2000/svg" fill="none" viewBox="0 0 128 128" id="Linear-Icon--Streamline-Svg-Logos" height="128" width="128">
  <desc>
    Linear Icon Streamline Icon: https://streamlinehq.com
  </desc>
  <path fill="#222326" d="M5.334946666666667 51.5708 76.4292 122.66506666666666c1.0374666666666665 1.0375999999999999 0.5370666666666666 2.800133333333333 -0.9054666666666666 3.0696 -2.405733333333333 0.4494666666666667 -4.8595999999999995 0.7616 -7.3536 0.9279999999999999 -0.5324 0.03546666666666666 -1.0525333333333333 -0.16533333333333333 -1.4298666666666666 -0.5426666666666666L1.8799866666666667 61.25973333333333c-0.37736 -0.3773333333333333 -0.578148 -0.8974666666666666 -0.5426266666666666 -1.43 0.16638666666666665 -2.4938666666666665 0.47850666666666664 -4.947733333333333 0.9279066666666667 -7.353466666666667 0.26948 -1.4425333333333334 2.0320666666666662 -1.9429333333333334 3.06968 -0.9054666666666666ZM3.33164 80.35653333333333c-0.4743733333333333 -1.7693333333333332 1.61592 -2.8854666666666664 2.9112266666666664 -1.5901333333333334L49.233599999999996 121.75719999999998c1.2953333333333332 1.2952 0.17919999999999997 3.3856 -1.5901333333333334 2.9110666666666667C26.0868 118.8888 9.111213333333332 101.91319999999999 3.33164 80.35653333333333Zm6.2308933333333325 -47.60933333333333c0.60372 -1.0457333333333332 2.0304933333333333 -1.2058666666666666 2.884293333333333 -0.3521333333333333L95.60493333333332 115.55306666666667c0.8537333333333332 0.8538666666666666 0.6937333333333333 2.2806666666666664 -0.3521333333333333 2.8844 -1.7593333333333332 1.0157333333333334 -3.572533333333333 1.9485333333333332 -5.4344 2.793066666666667 -0.7007999999999999 0.3177333333333333 -1.5223999999999998 0.15746666666666664 -2.0664 -0.3865333333333333L7.15596 40.248c-0.5440266666666667 -0.5439999999999999 -0.7042799999999999 -1.3656 -0.3864666666666666 -2.0664 0.8445066666666667 -1.8618666666666668 1.7773066666666666 -3.6750666666666665 2.79304 -5.4344ZM63.931466666666665 1.3333333333333333C98.57919999999999 1.3333333333333333 126.66666666666666 29.4208 126.66666666666666 64.06853333333333c0 18.39333333333333 -7.915733333333333 34.937866666666665 -20.526266666666665 46.412800000000004 -0.728 0.6624 -1.8447999999999998 0.6185333333333333 -2.5408 -0.07733333333333334L17.595999999999997 24.400399999999998c-0.6958666666666666 -0.696 -0.7397333333333332 -1.8127999999999997 -0.07733333333333334 -2.5408C28.9936 9.249013333333332 45.53813333333333 1.3333333333333333 63.931466666666665 1.3333333333333333Z" stroke-width="1.3333"></path>
</svg>