<svg xmlns="http://www.w3.org/2000/svg" fill="none" viewBox="0 0 128 128" id="Notion-Icon--Streamline-Svg-Logos" height="128" width="128">
  <desc>
    Notion Icon Streamline Icon: https://streamlinehq.com
  </desc>
  <path fill="#ffffff" d="M11.560986666666667 6.7401599999999995 80.91133333333333 1.618253333333333c8.5184 -0.731096 10.707466666666665 -0.23812 16.063333333333333 3.6555199999999997L119.1124 20.8692c3.6513333333333335 2.6821333333333333 4.867066666666666 3.4132 4.867066666666666 6.333466666666666V112.73333333333332c0 5.359999999999999 -1.9467999999999999 8.530933333333333 -8.760666666666665 9.015466666666665l-80.53413333333333 4.875466666666666c-5.113466666666667 0.24226666666666666 -7.549066666666667 -0.48879999999999996 -10.227066666666666 -3.9019999999999997L8.156133333333333 101.52453333333332c-2.924413333333333 -3.9019999999999997 -4.135946666666666 -6.822266666666666 -4.135946666666666 -10.235466666666666V15.262666666666664c0 -4.382386666666666 1.9468133333333333 -8.037893333333333 7.540799999999999 -8.522506666666665Z" stroke-width="1.3333"></path>
  <path fill="#000000" d="M80.91133333333333 1.618253333333333 11.560986666666667 6.7401599999999995c-5.593986666666667 0.48461333333333334 -7.540799999999999 4.14012 -7.540799999999999 8.522506666666665v76.0264c0 3.4132 1.2115333333333331 6.333466666666666 4.135946666666666 10.235466666666666l16.301466666666666 21.197733333333332c2.678 3.4132 5.1136 4.144266666666667 10.227066666666666 3.9019999999999997l80.53413333333333 -4.875466666666666c6.809733333333334 -0.4845333333333333 8.760666666666665 -3.6554666666666664 8.760666666666665 -9.015466666666665V27.202666666666666c0 -2.7698666666666663 -1.0945333333333331 -3.5677333333333334 -4.3156 -5.9323999999999995 -0.18533333333333335 -0.13346666666666665 -0.37053333333333327 -0.2672 -0.5556 -0.4010666666666667L96.97466666666665 5.273773333333333C91.6188 1.3801333333333332 89.42973333333333 0.8871573333333332 80.91133333333333 1.618253333333333ZM36.50626666666666 25.803199999999997c-6.575866666666666 0.44279999999999997 -8.0672 0.5430666666666666 -11.802133333333332 -2.494133333333333l-9.495999999999999 -7.553333333333333c-0.9650666666666666 -0.9775999999999999 -0.4804 -2.1974666666666662 1.9510666666666667 -2.439826666666667L83.82733333333333 8.444666666666667c5.598133333333333 -0.4887866666666667 8.514266666666666 1.4622133333333331 10.703333333333333 3.1667199999999998l11.434533333333334 8.284479999999999c0.48866666666666664 0.24639999999999998 1.7044 1.7045333333333332 0.24226666666666666 1.7045333333333332l-68.84906666666666 4.144266666666667 -0.8521333333333333 0.05853333333333333Zm-7.666133333333333 86.19906666666665V39.39333333333333c0 -3.170933333333333 0.9733333333333333 -4.6331999999999995 3.8894666666666664 -4.8796l79.076 -4.6289333333333325c2.6821333333333333 -0.24226666666666666 3.8935999999999997 1.4621333333333333 3.8935999999999997 4.6289333333333325v72.12426666666667c0 3.170933333333333 -0.48879999999999996 5.853066666666667 -4.867066666666666 6.0953333333333335l-75.6712 4.386666666666667c-4.378266666666667 0.24226666666666666 -6.320799999999999 -1.2157333333333333 -6.320799999999999 -5.117733333333333Zm74.69773333333333 -68.71533333333332c0.48466666666666663 2.1933333333333334 0 4.386666666666667 -2.1933333333333334 4.637333333333333l-3.6470666666666665 0.7226666666666667v53.608666666666664c-3.1668000000000003 1.7045333333333332 -6.0828 2.6778666666666666 -8.5184 2.6778666666666666 -3.8937333333333335 0 -4.867066666666666 -1.2198666666666667 -7.783199999999999 -4.8712l-23.85066666666667 -37.5244v36.30453333333333l7.545066666666667 1.7086666666666668s0 4.386666666666667 -6.086933333333333 4.386666666666667l-16.781999999999996 0.9733333333333333c-0.48879999999999996 -0.9775999999999999 0 -3.4132 1.7004000000000001 -3.897733333333333l4.3824 -1.2157333333333333V52.79546666666667l-6.0828 -0.4929333333333333c-0.48879999999999996 -2.1933333333333334 0.7269333333333333 -5.360133333333334 4.135999999999999 -5.606533333333333l18.006 -1.2115999999999998L89.17906666666666 83.49333333333333V49.8668l-6.325066666666666 -0.7269333333333333c-0.48879999999999996 -2.6862666666666666 1.4579999999999997 -4.6372 3.889333333333333 -4.875333333333333l16.794533333333334 -0.9775999999999999Z" stroke-width="1.3333"></path>
</svg>