<svg xmlns="http://www.w3.org/2000/svg" fill="none" viewBox="0 0 128 128" id="Openai-Icon--Streamline-Svg-Logos" height="128" width="128">
  <desc>
    Openai Icon Streamline Icon: https://streamlinehq.com
  </desc>
  <path fill="#000000" d="M117.6936 52.6216c2.834933333333333 -8.537466666666667 1.8536000000000001 -17.88253333333333 -2.6930666666666667 -25.644799999999996C108.16426666666666 15.076933333333333 94.42399999999999 8.95568 81.00506666666666 11.831946666666667c-7.562133333333333 -8.411653333333334 -19.036133333333332 -12.152152000000001 -30.102800000000002 -9.813466666666667C39.83546666666666 4.357173333333333 30.855866666666664 12.42004 27.343466666666664 23.172c-8.814533333333333 1.8075999999999999 -16.42232 7.326666666666666 -20.876573333333333 15.144799999999998C-0.44391866666666663 50.197466666666664 1.1246546666666666 65.18373333333332 10.345733333333332 75.37586666666667c-2.845693333333333 8.5336 -1.87324 17.879866666666665 2.668253333333333 25.64493333333333C19.858933333333333 112.92466666666667 33.60813333333333 119.04546666666666 47.03426666666667 116.1656c5.971866666666667 6.724666666666666 14.551333333333334 10.550799999999999 23.5448 10.500533333333333 13.754533333333331 0.012266666666666665 25.939866666666664 -8.867066666666666 30.141466666666666 -21.96413333333333 8.813199999999998 -1.8106666666666666 16.419866666666664 -7.328799999999999 20.876533333333334 -15.144799999999998 6.827333333333333 -11.8596 5.252133333333333 -26.765066666666662 -3.9034666666666666 -36.935599999999994ZM70.57906666666666 118.46333333333332c-5.489999999999999 0.008666666666666666 -10.808 -1.9156 -15.0212 -5.435333333333333l0.7410666666666665 -0.42 24.9532 -14.403733333333332c1.2633333333333332 -0.7409333333333332 2.0426666666666664 -2.0930666666666666 2.050533333333333 -3.5576V59.465199999999996l10.549466666666666 6.1024c0.1056 0.05386666666666666 0.17906666666666665 0.1548 0.19773333333333332 0.2717333333333333v29.1532c-0.027200000000000002 12.9512 -10.519466666666666 23.443599999999996 -23.4708 23.4708ZM20.12933333333333 96.9196c-2.7532 -4.754133333333333 -3.741733333333333 -10.326799999999999 -2.791733333333333 -15.737733333333333l0.7410666666666665 0.44466666666666665 24.977866666666664 14.403599999999999c1.2585333333333333 0.7385333333333333 2.818 0.7385333333333333 4.076533333333333 0l30.512 -17.590666666666664v12.180133333333332c-0.005733333333333333 0.1277333333333333 -0.06946666666666666 0.246 -0.17293333333333333 0.3210666666666666L52.19773333333333 105.51733333333334c-11.231066666666665 6.470133333333333 -25.580266666666663 2.6230666666666664 -32.0684 -8.597733333333332Zm-6.571866666666666 -54.35333333333333c2.7723999999999998 -4.7848 7.148266666666666 -8.434266666666666 12.353066666666665 -10.302399999999999v29.647199999999998c-0.019066666666666666 1.4589333333333334 0.7571999999999999 2.812666666666667 2.0258666666666665 3.5330666666666666l30.363733333333332 17.51653333333333 -10.549466666666666 6.1024c-0.11586666666666667 0.06146666666666667 -0.25466666666666665 0.06146666666666667 -0.37053333333333327 0L22.155199999999997 74.5112c-11.209053333333333 -6.497066666666666 -15.053239999999999 -20.835466666666665 -8.597733333333332 -32.0684v0.12346666666666667Zm86.66893333333333 20.135466666666666 -30.462666666666667 -17.6896 10.524799999999999 -6.0776c0.11586666666666667 -0.061599999999999995 0.25479999999999997 -0.061599999999999995 0.3706666666666667 0L105.88399999999999 53.511066666666665c7.872933333333333 4.543066666666666 12.4148 13.223333333333333 11.658666666666665 22.281466666666663 -0.7561333333333333 9.058133333333332 -6.6743999999999994 16.865199999999998 -15.191600000000001 20.04V66.18533333333333c-0.04426666666666666 -1.4546666666666666 -0.8516 -2.7784 -2.1246666666666663 -3.4835999999999996Zm10.5 -15.7872 -0.7411999999999999 -0.44466666666666665L85.0568 31.942666666666668c-1.2661333333333333 -0.7429333333333333 -2.8350666666666666 -0.7429333333333333 -4.1011999999999995 0L50.4684 49.53333333333333v-12.18c-0.0132 -0.12613333333333332 0.0436 -0.24946666666666664 0.14826666666666666 -0.3212l25.224800000000002 -14.551866666666665c7.892133333333334 -4.546533333333333 17.701066666666666 -4.1222666666666665 25.171066666666665 1.0888 7.470133333333333 5.2110666666666665 11.255466666666665 14.27 9.713866666666666 23.246666666666663v0.0988ZM44.711866666666666 68.5076l-10.549466666666666 -6.0776c-0.10666666666666666 -0.06466666666666666 -0.17906666666666665 -0.17319999999999997 -0.19773333333333332 -0.2965333333333333V33.0544c0.012133333333333333 -9.106266666666667 5.284933333333333 -17.385599999999997 13.531999999999998 -21.247173333333333 8.246933333333333 -3.86164 17.982666666666667 -2.610106666666667 24.9848 3.2118399999999996l-0.7411999999999999 0.42L46.7872 29.842666666666666c-1.2633333333333332 0.7410666666666665 -2.0426666666666664 2.0930666666666666 -2.0506666666666664 3.557733333333333l-0.024666666666666663 35.1072Zm5.731733333333333 -12.352933333333333 13.5884 -7.8318666666666665 13.613066666666665 7.8318666666666665v15.663599999999999l-13.563600000000001 7.831733333333333 -13.613066666666665 -7.831733333333333 -0.024799999999999996 -15.663599999999999Z" stroke-width="1.3333"></path>
</svg>