<?xml version="1.0" encoding="UTF-8"?>
<svg version="1.1" xmlns="http://www.w3.org/2000/svg" width="3500" height="1060">
<path d="M0 0 C0.59013848 1.30302196 1.18027494 2.60604484 1.77041054 3.90906811 C2.09904299 4.63468888 2.42767545 5.36030964 2.76626647 6.10791892 C12.0464343 26.59943654 21.30836865 47.09856098 30.49365234 67.6328125 C33.05595548 73.36041134 35.62141279 79.08659567 38.1875 84.8125 C38.71134277 85.98143799 39.23518555 87.15037598 39.77490234 88.35473633 C44.50570613 98.90806102 49.2525496 109.4541558 54 120 C61.85923034 137.45825901 69.69684721 154.92605847 77.52246094 172.39941406 C84.72360316 188.47691643 91.94313685 204.54602026 99.17489624 220.60977173 C104.46988375 232.37173636 109.75485796 244.13808439 115.02734375 255.91015625 C119.67296552 266.27881331 124.33586626 276.63966012 129 287 C136.85930401 304.45822572 144.69684731 321.92605868 152.52246094 339.39941406 C159.72360316 355.47691643 166.94313685 371.54602026 174.17489624 387.60977173 C179.46988375 399.37173636 184.75485796 411.13808439 190.02734375 422.91015625 C194.67296552 433.27881331 199.33586626 443.63966012 204 454 C211.85930401 471.45822572 219.69684731 488.92605868 227.52246094 506.39941406 C234.33362785 521.60624496 241.16010834 536.80606943 248 552 C254.83854899 567.19094799 261.66350312 582.38786686 268.47314453 597.59179688 C270.5354663 602.19525257 272.59970532 606.79784739 274.6640625 611.40039062 C275.71540351 613.74519181 276.76619119 616.09024117 277.81640625 618.43554688 C280.67154899 624.81134267 283.53249754 631.18442789 286.40353394 637.55308533 C287.98556168 641.06397884 289.56457712 644.57622283 291.14318848 648.08865356 C291.92025407 649.81571612 292.69864769 651.54218178 293.47839355 653.26803589 C294.56842604 655.681082 295.65384996 658.09615137 296.73828125 660.51171875 C297.23413475 661.6048941 297.23413475 661.6048941 297.74000549 662.72015381 C300 667.77217947 300 667.77217947 300 670 C277.68749449 677.61523626 255.21131191 684.66439194 232.69995117 691.66485596 C219.2799476 695.8412758 205.87427343 700.06321872 192.46749878 704.28186035 C167.79801592 712.04423691 143.12255511 719.78728429 118.4375 727.5 C117.77274155 727.70772034 117.10798309 727.91544067 116.42308044 728.12945557 C102.61464825 732.44415068 88.80450403 736.75327321 74.98828125 741.04296875 C73.97467026 741.35779205 72.96105927 741.67261536 71.91673279 741.99697876 C67.34541614 743.4166597 62.77371358 744.83505838 58.20092773 746.25 C48.63394864 749.21530818 39.09107628 752.24976896 29.55859375 755.32421875 C15.65960699 759.80547399 1.72580123 764.17010414 -12.21743774 768.51138306 C-18.5248002 770.47594253 -24.83077178 772.44496523 -31.13671875 774.4140625 C-32.22452196 774.75370655 -32.22452196 774.75370655 -33.33430099 775.1002121 C-49.96332009 780.2932319 -66.57827118 785.53069515 -83.19214249 790.77193451 C-107.4348955 798.41985548 -131.68651306 806.03814745 -155.95330811 813.60943604 C-178.14775039 820.53441255 -200.32723589 827.50593784 -222.5 834.5 C-245.97371702 841.90442803 -269.45656645 849.27840565 -292.95330811 856.60943604 C-315.14775073 863.53441265 -337.32720603 870.50603185 -359.5 877.5 C-382.38611254 884.71884137 -405.27963985 891.91296186 -428.1875 899.0625 C-450.34064219 905.97684171 -472.48642249 912.91415834 -494.625 919.875 C-495.35132755 920.10335918 -496.07765511 920.33171837 -496.82599258 920.56699753 C-507.88428184 924.04375328 -518.94218878 927.52172421 -530 931 C-541.79144369 934.70904262 -553.5830459 938.41758038 -565.375 942.125 C-566.10205265 942.35360088 -566.8291053 942.58220177 -567.57818985 942.81772995 C-589.63607671 949.75306636 -611.70234552 956.66112519 -633.77480316 963.54993439 C-656.80501259 970.73787436 -679.81896989 977.97657917 -702.82733536 985.23411179 C-725.52533553 992.3936219 -748.23311225 999.52068949 -770.95330811 1006.60943604 C-790.8251268 1012.80972149 -810.68627578 1019.04304647 -830.5388422 1025.30470848 C-835.91154665 1026.99928624 -841.28462104 1028.692686 -846.65795898 1030.38525391 C-847.41124324 1030.62254274 -848.16452749 1030.85983158 -848.94063854 1031.10431099 C-851.9773659 1032.06088237 -855.01410153 1033.01742747 -858.0508709 1033.97386551 C-867.25391493 1036.87245829 -876.45559686 1039.77530147 -885.65548515 1042.68389511 C-891.65855181 1044.58135635 -897.66322239 1046.47368405 -903.66908455 1048.36227798 C-907.18825704 1049.46911386 -910.7066464 1050.57829724 -914.22314453 1051.69360352 C-918.07482455 1052.91518019 -921.92980149 1054.12600849 -925.78515625 1055.3359375 C-927.47518517 1055.8747908 -927.47518517 1055.8747908 -929.19935608 1056.42453003 C-934.83128758 1058.18190588 -940.1156296 1059.50730549 -946 1060 C-956.95176036 1030.40591911 -967.86122743 1000.7965682 -978.73388672 971.17333984 C-982.11270298 961.96802509 -985.49446516 952.76379252 -988.87600708 943.55947876 C-990.75079223 938.45636357 -992.62538645 933.35317823 -994.5 928.25 C-995.24999909 926.208333 -995.99999909 924.16666633 -996.75 922.125 C-1033.875 821.0625 -1071 720 -1271.25 174.875 C-1271.62117447 173.86458145 -1271.99234894 172.8541629 -1272.37477112 171.81312561 C-1273.12553625 169.76937438 -1273.87629919 167.72562235 -1274.62705994 165.68186951 C-1276.49033545 160.60959004 -1278.35364791 155.53732416 -1280.21704102 150.46508789 C-1283.73189908 140.89737022 -1287.24636516 131.32950902 -1290.75961304 121.76119995 C-1292.41911296 117.24162837 -1294.07881145 112.72212971 -1295.73852539 108.20263672 C-1296.52964039 106.04821357 -1297.3206581 103.8937547 -1298.11157227 101.73925781 C-1299.20824966 98.75186257 -1300.30526237 95.76459065 -1301.40234375 92.77734375 C-1301.72339584 91.90250839 -1302.04444794 91.02767303 -1302.37522888 90.12632751 C-1302.67800247 89.30209793 -1302.98077606 88.47786835 -1303.29272461 87.62866211 C-1303.57783905 86.84997772 -1303.86295349 86.07129333 -1304.15670776 85.26901245 C-1304.72171875 83.74876015 -1305.29945889 82.23318181 -1305.88943481 80.72244263 C-1308 75.30081507 -1308 75.30081507 -1308 72 C-1208.75628731 66.331203 -1109.50909298 60.72553976 -1010.25878906 55.17333984 C-1009.58598209 55.13570132 -1008.91317511 55.09806279 -1008.21998005 55.0592837 C-965.1604605 52.65043048 -922.10078177 50.24442775 -879.04104982 47.83937474 C-873.75532064 47.54414569 -868.46959212 47.2489047 -863.183864 46.95365673 C-804.13679448 43.6554346 -745.08968533 40.3579223 -686.0424619 37.06245651 C-673.08224201 36.33913523 -660.12202355 35.61578854 -647.16180569 34.89243084 C-644.72295831 34.75631001 -642.28411085 34.62019037 -639.8452634 34.48407074 C-588.05147188 31.59328214 -536.25790124 28.69855888 -484.46445672 25.80156034 C-446.35523186 23.66997249 -408.2459775 21.53891955 -370.13650131 19.41182899 C-369.3532668 19.3681123 -368.5700323 19.32439561 -367.76306341 19.27935417 C-350.57567484 18.32004142 -333.38826899 17.36103863 -316.20084687 16.40232725 C-309.29081503 16.0168822 -302.38078545 15.63139669 -295.47075653 15.2458992 C-294.71487406 15.20373106 -293.95899158 15.16156292 -293.18020357 15.11811696 C-268.92857906 13.76518177 -244.6771476 12.40882219 -220.42581621 11.05064373 C-196.09898553 9.68825538 -171.771962 8.32936752 -147.44466568 6.97531764 C-132.38289403 6.13698131 -117.32129456 5.2956796 -102.25997084 4.44932886 C-92.65227106 3.90974445 -83.04435096 3.374211 -73.43624291 2.84194621 C-67.96798783 2.53890403 -62.49984475 2.23413359 -57.03196362 1.92441134 C-52.04934695 1.6422114 -47.06646724 1.36523094 -42.08333836 1.09222951 C-40.30228282 0.99376985 -38.52132657 0.89349026 -36.74049543 0.79105198 C-24.48166123 0.08730665 -12.27849551 -0.10984837 0 0 Z " fill="#02797E" transform="translate(1308,0)"/>
<path d="M0 0 C229.10094895 0 229.10094895 0 247.6875 2.375 C248.76435059 2.50583984 249.84120117 2.63667969 250.95068359 2.77148438 C257.90594648 3.64757294 264.74476741 4.75771919 271.59375 6.26171875 C275.25652143 7.05559925 278.93099609 7.68082533 282.625 8.3125 C316.14296273 14.42426015 350.94681807 27.61628031 377 50 C377.7321875 50.5878125 378.464375 51.175625 379.21875 51.78125 C401.1488457 70.00485065 413.33082861 98.79790913 416.64453125 126.58203125 C419.84307955 162.07851709 412.02746369 199.1563886 389.10644531 227.20532227 C387.75172099 228.81626204 386.37910745 230.40991718 385 232 C383.74703125 233.47919922 383.74703125 233.47919922 382.46875 234.98828125 C376.85379266 241.41172137 370.8380771 246.90478781 364 252 C363.21858643 252.58515381 363.21858643 252.58515381 362.42138672 253.18212891 C342.056259 268.20042772 317.35593256 277.69124465 293 284 C292.35192383 284.18240234 291.70384766 284.36480469 291.03613281 284.55273438 C277.84536199 288.26167601 264.41253638 290.29064319 250.875 292.25 C249.98752075 292.38073914 249.1000415 292.51147827 248.18566895 292.6461792 C245.56004546 293.02979184 242.93285309 293.39987042 240.3046875 293.765625 C239.55063629 293.87582977 238.79658508 293.98603455 238.01968384 294.09957886 C212.74517273 297.50618208 186.12502555 296 161 296 C161 337.91 161 379.82 161 423 C107.87 423 54.74 423 0 423 C0 283.41 0 143.82 0 0 Z " fill="#FEFEFE" transform="translate(250,327)"/>
<path d="M0 0 C1.1537915 0.00254791 2.30758301 0.00509583 3.49633789 0.00772095 C10.21246914 0.02512477 16.92836558 0.05758959 23.64434814 0.10540771 C26.02575487 0.12211185 28.40714085 0.1350186 30.78857422 0.14697266 C55.945274 0.35104873 112.5001603 1.1876603 131.4375 20.125 C131.5331161 21.57981495 131.55938351 23.03925486 131.55775452 24.49720764 C131.55981651 25.91284752 131.55981651 25.91284752 131.56192017 27.35708618 C131.55832489 28.40077362 131.55472961 29.44446106 131.55102539 30.51977539 C131.55117142 31.61232132 131.55131744 32.70486725 131.5514679 33.83052063 C131.55076822 37.46125233 131.54297329 41.09193346 131.53515625 44.72265625 C131.53329226 47.23229443 131.53186827 49.74193298 131.53086853 52.25157166 C131.52743348 58.19434593 131.51954273 64.13710384 131.50951904 70.07986969 C131.49726253 77.50701925 131.49187792 84.93417105 131.48632812 92.36132812 C131.47558811 105.61589473 131.45870082 118.87044621 131.4375 132.125 C127.97865892 130.9904963 124.67734617 129.86266634 121.43359375 128.20703125 C96.69309083 115.86548741 68.90320304 107.50458182 41.4375 104.125 C40.7244873 104.0321875 40.01147461 103.939375 39.27685547 103.84375 C5.89675793 99.95507627 -27.95686537 103.68853843 -57.5625 120.125 C-58.90828125 120.84623047 -58.90828125 120.84623047 -60.28125 121.58203125 C-84.00614089 134.94653959 -97.98679411 155.13818941 -105.3359375 181.0078125 C-108.1358856 192.03919514 -108.91130752 202.85728899 -108.87817383 214.18041992 C-108.87501784 216.42481348 -108.89856243 218.6678777 -108.92382812 220.91210938 C-109.05267511 250.33874707 -98.39578598 276.36077576 -78.16796875 297.64453125 C-62.58310149 312.40234088 -43.20707418 321.94897058 -22.5625 327.125 C-21.68239258 327.34816895 -20.80228516 327.57133789 -19.89550781 327.80126953 C-15.3847005 328.93567214 -10.86747554 330.04402416 -6.33984375 331.109375 C-5.61015381 331.28178711 -4.88046387 331.45419922 -4.12866211 331.63183594 C2.87806708 332.9783865 9.72406779 333.30525576 16.83984375 333.36328125 C17.82666641 333.3730751 18.81348907 333.38286896 19.83021545 333.39295959 C49.85481778 333.6921227 49.85481778 333.6921227 79.4375 329.125 C80.45086426 328.89474121 81.46422852 328.66448242 82.50830078 328.42724609 C99.46030521 324.55005042 115.88168364 319.58388831 132.14575195 313.44750977 C132.90718506 313.16061279 133.66861816 312.87371582 134.453125 312.578125 C135.12633789 312.32192383 135.79955078 312.06572266 136.49316406 311.80175781 C138.43751672 311.12499418 140.44020388 310.62432403 142.4375 310.125 C142.4375 345.435 142.4375 380.745 142.4375 417.125 C121.32111601 422.68194316 100.54078495 427.33499064 79.08964539 431.1181488 C76.22802823 431.62315042 73.36995537 432.1381125 70.51733398 432.69189453 C62.80917402 434.18545305 55.06730123 435.05339007 47.25 435.75 C46.51783264 435.81536957 45.78566528 435.88073914 45.03131104 435.9480896 C15.12511895 438.52022435 -15.73353164 438.6312451 -45.5625 435.125 C-47.47622367 434.91705168 -49.3899497 434.70912479 -51.3037262 434.50166321 C-118.53850853 427.13678258 -191.27287083 402.29877456 -236.0625 348.875 C-258.5880936 320.67890107 -273.67159466 286.17070444 -277.5625 250.125 C-277.6538623 249.30491455 -277.74522461 248.4848291 -277.83935547 247.63989258 C-282.95495088 195.27570956 -273.40443437 144.82291271 -241.5625 102.125 C-240.88985107 101.21911133 -240.88985107 101.21911133 -240.20361328 100.29492188 C-210.33253139 60.40944415 -169.0708402 34.97347593 -122.5625 18.125 C-121.85303223 17.86638184 -121.14356445 17.60776367 -120.41259766 17.34130859 C-100.8801468 10.30377387 -80.43192007 5.69775854 -59.875 3 C-58.06225586 2.74669922 -58.06225586 2.74669922 -56.21289062 2.48828125 C-37.53190876 0.00009594 -18.81788585 -0.04958667 0 0 Z " fill="#FEFEFE" transform="translate(976.5625,320.875)"/>
<path d="M0 0 C53.79 0 107.58 0 163 0 C163 140.25 163 280.5 163 425 C109.21 425 55.42 425 0 425 C0 284.75 0 144.5 0 0 Z " fill="#FEFEFE" transform="translate(1186,327)"/>
<path d="M0 0 C13.35194666 11.35971349 23.01222507 23.74293617 28.35107422 40.65380859 C28.72232422 41.74693359 29.09357422 42.84005859 29.47607422 43.96630859 C35.97974262 71.37462541 32.54801056 99.2434931 18.35107422 123.65380859 C16.22340472 126.87713696 13.93911362 129.79082737 11.35107422 132.65380859 C10.84447266 133.24033203 10.33787109 133.82685547 9.81591797 134.43115234 C-6.25343348 151.84290661 -32.58614671 162.58580502 -55.89599609 163.82666016 C-84.15652749 164.76212698 -110.42682529 160.68422499 -132.64892578 141.65380859 C-133.45974609 140.98736328 -134.27056641 140.32091797 -135.10595703 139.63427734 C-153.206419 124.20300792 -161.70472064 103.00827281 -163.64892578 79.65380859 C-165.2609827 53.71948934 -158.66160441 29.80930221 -141.80664062 9.91918945 C-130.44469147 -2.88001534 -114.27657918 -13.12960944 -97.64892578 -17.34619141 C-96.17359375 -17.76191406 -96.17359375 -17.76191406 -94.66845703 -18.18603516 C-62.98703273 -25.6831661 -25.62286025 -20.91863361 0 0 Z " fill="#FEFEFE" transform="translate(1333.64892578125,121.34619140625)"/>
<path d="M0 0 C68.44892132 0 68.44892132 0 89.77734375 20.49609375 C99.52399255 31.47606191 102.62533909 44.17329309 102.2109375 58.59765625 C101.4324384 71.15455847 97.84594211 84.02753826 88.90234375 93.421875 C63.80340962 114.24316738 30.88452311 113 0 113 C0 75.71 0 38.42 0 0 Z " fill="#02797E" transform="translate(410,417)"/>
<path d="M0 0 C7.26 0 14.52 0 22 0 C22.33 56.43 22.66 112.86 23 171 C16.4 171 9.8 171 3 171 C2.77213542 167.97265625 2.54427083 164.9453125 2.31640625 161.91796875 C2.09787539 158.94010095 2.09787539 158.94010095 1 156 C0.21625 157.010625 -0.5675 158.02125 -1.375 159.0625 C-9.97113962 168.98421255 -20.9927364 173.56857937 -33.875 174.9375 C-47.18739456 175.53993728 -59.400885 171.84327396 -69.6875 163.375 C-74.49313963 158.8665289 -77.82675723 153.7416638 -81 148 C-81.40089844 147.28199219 -81.80179688 146.56398438 -82.21484375 145.82421875 C-90.93584746 128.34930188 -89.88307598 105.86386865 -83.93359375 87.75390625 C-78.86645395 74.62616783 -70.27775072 63.1449633 -57.3125 57.0625 C-44.24745274 51.5311674 -27.82137311 50.35625951 -14.453125 55.72265625 C-9.22796717 58.44339926 -5.14634129 61.85365871 -1 66 C-0.67 44.22 -0.34 22.44 0 0 Z M-56 79 C-65.50204984 91.09351798 -65.89355709 106.27392302 -65 121 C-64.42044698 124.89715183 -63.4652484 128.34869552 -62 132 C-61.6596875 132.85851562 -61.319375 133.71703125 -60.96875 134.6015625 C-57.1486038 143.14526786 -51.39105336 149.37767583 -42.859375 153.30859375 C-34.57654394 156.38855404 -26.6978491 155.53717283 -18.60546875 152.25 C-10.6174949 148.41768871 -5.52470093 143.20559357 -2 135 C0.45147521 127.6435492 0.4051229 119.98497848 0.42553711 112.30834961 C0.43742316 110.20112343 0.48672375 108.09684491 0.53710938 105.99023438 C0.6758632 94.3976502 -1.83126619 84.30427731 -10.03515625 75.6875 C-17.8973209 68.93510412 -25.33845737 67.62170681 -35.45703125 67.7265625 C-44.00531851 68.38629801 -50.25371789 72.83877848 -56 79 Z " fill="#01787D" transform="translate(2572,576)"/>
<path d="M0 0 C6.6 0 13.2 0 20 0 C20.0154612 3.01434425 20.0154612 3.01434425 20.03123474 6.08958435 C20.12881912 25.02649298 20.23166391 43.96336784 20.33933926 62.90022182 C20.39457013 72.63586187 20.4480352 82.37150559 20.49731445 92.10717773 C20.54028074 100.59476209 20.58658959 109.08232057 20.63687855 117.56986481 C20.66337953 122.06213143 20.68822953 126.55439326 20.70907402 131.04668999 C20.72876732 135.27948994 20.75294756 139.5122411 20.78049088 143.74499702 C20.78979453 145.29410026 20.79749328 146.84321415 20.80341911 148.39233398 C20.81179523 150.51746291 20.82610136 152.64247698 20.84178162 154.76756287 C20.84823417 155.95391044 20.85468672 157.14025801 20.8613348 158.3625555 C21.02245484 162.5890319 21.53292474 166.79632267 22 171 C15.4 171 8.8 171 2 171 C1.01 163.08 1.01 163.08 0 155 C-1.27875 156.52625 -2.5575 158.0525 -3.875 159.625 C-13.01291157 169.75118101 -24.04899929 174.30648594 -37.53125 175.0625 C-50.6943644 174.82532677 -62.32956317 170.27794074 -71.8984375 161.30078125 C-75.59575155 157.25297832 -78.35574295 152.78451732 -81 148 C-81.40089844 147.28199219 -81.80179688 146.56398438 -82.21484375 145.82421875 C-90.95706533 128.30678608 -89.64624042 106.42293695 -84.15625 88.19921875 C-78.54874413 72.65772619 -67.2404786 62.39856931 -52.671875 55.53125 C-41.44943087 50.85125202 -25.70672861 51.26383912 -14.48828125 55.72265625 C-9.23577233 58.41899913 -5.15397991 61.84602009 -1 66 C-0.67 44.22 -0.34 22.44 0 0 Z M-60 79 C-68.81999084 90.04540519 -71.29091411 105.23024951 -70 119 C-68.31144922 131.0570899 -64.07552866 141.50277691 -54.484375 149.33984375 C-47.40040947 154.07362575 -39.47314359 156.29841221 -31 155 C-20.75494191 152.36466542 -14.12117542 146.20564146 -8.32421875 137.6015625 C-4.15265975 129.40611031 -3.35192073 121.41722248 -3.07177734 112.30834961 C-3.00041951 110.19989561 -2.88601993 108.09661506 -2.76953125 105.99023438 C-2.30620908 95.04933966 -4.38349028 86.1519652 -11.4375 77.5 C-16.89344911 71.80786262 -22.58411772 68.42196208 -30.515625 67.6640625 C-42.75549423 67.5360304 -51.63883389 69.6837869 -60 79 Z " fill="#01787D" transform="translate(2245,576)"/>
<path d="M0 0 C15.61211148 -0.41510579 29.90156523 1.42591275 44.08984375 8.15625 C42.43984375 14.09625 40.78984375 20.03625 39.08984375 26.15625 C31.46484375 24.21875 31.46484375 24.21875 29.09912109 23.61352539 C9.39005288 18.64748066 -11.02048691 19.67054068 -29.12890625 29.40625 C-43.52531942 38.46466728 -51.45879904 52.75756419 -55.22265625 69.09375 C-58.0972146 87.94421918 -56.7629519 109.19096487 -46.34765625 125.62109375 C-35.87530526 139.80240238 -22.128757 146.94323821 -4.8984375 149.625 C10.1368953 151.28511203 24.66461077 148.09040445 39.08984375 144.15625 C40.73984375 149.76625 42.38984375 155.37625 44.08984375 161.15625 C16.14703888 170.2316909 -13.45890808 173.35536505 -40.78662109 160.25683594 C-59.62716715 150.40017301 -71.21916893 134.48039784 -78.09765625 114.75 C-85.14603783 91.61830335 -82.80945016 63.71059594 -71.91015625 42.15625 C-62.26997593 24.29281876 -46.62503052 10.54873116 -27.02539062 4.58251953 C-18.03951721 2.0302041 -9.33235906 0.37292144 0 0 Z " fill="#01787D" transform="translate(2845.91015625,581.84375)"/>
<path d="M0 0 C13.84331625 11.77096352 19.92794776 26.07753297 21.484375 44.03125 C22.91619823 62.40123742 17.47453805 80.74865823 5.8671875 95.01953125 C-4.40677565 106.10459675 -18.65742621 111.9509559 -33.515625 113.03125 C-50.49563599 113.19076994 -64.77237119 108.1778187 -77.16015625 96.5390625 C-89.50709918 83.39356108 -93.40756684 66.60605647 -93.546875 49.10546875 C-92.73515507 29.56331143 -85.60278238 14.26442344 -71.359375 1.02734375 C-51.83573982 -15.34845895 -19.98949746 -15.64395453 0 0 Z M-62.984375 18.65234375 C-71.65592458 29.67684429 -72.78503477 44.560186 -71.515625 58.03125 C-69.08342751 71.8017799 -62.76797555 82.6413395 -51.515625 91.03125 C-44.37704319 95.38367646 -36.86792144 95.59589275 -28.9609375 93.74609375 C-19.83660151 91.07875591 -13.46485708 85.89835206 -8.52734375 77.75 C-0.35605655 62.67445285 0.50114351 47.1376035 -4.2578125 30.73828125 C-7.5448276 21.05077402 -12.91189598 13.97011138 -21.72265625 8.71484375 C-37.34361356 1.27999342 -52.06408061 6.59935925 -62.984375 18.65234375 Z " fill="#01787D" transform="translate(2995.515625,637.96875)"/>
<path d="M0 0 C7.59 0 15.18 0 23 0 C19.62493481 11.25021731 19.62493481 11.25021731 18.20092773 14.90332031 C17.87817871 15.73683014 17.55542969 16.57033997 17.22290039 17.42910767 C16.8799292 18.30328339 16.53695801 19.17745911 16.18359375 20.078125 C15.81492187 21.02698578 15.44625 21.97584656 15.06640625 22.95346069 C13.8606301 26.05382613 12.64926902 29.15197246 11.4375 32.25 C10.58901957 34.42617031 9.74079763 36.60244143 8.89282227 38.77880859 C7.13900276 43.27817495 5.38273436 47.77657577 3.625 52.27441406 C1.50615397 57.69882415 -0.60296666 63.12693972 -2.70777893 68.55680847 C-36.16742249 154.87078631 -36.16742249 154.87078631 -65.875 169 C-69.55494619 170.54973132 -72.98624678 171.67456055 -77 172 C-79.41862058 166.06338584 -80.9007105 160.31121503 -82 154 C-81.03320312 153.52691406 -80.06640625 153.05382812 -79.0703125 152.56640625 C-66.07938719 146.0425134 -57.31854816 138.79289984 -50 126 C-49.56558594 125.32582031 -49.13117187 124.65164063 -48.68359375 123.95703125 C-46.21379065 120.05870092 -45.61350356 117.56420885 -46 113 C-46.86569819 110.43924338 -47.7785286 108.05811582 -48.859375 105.59375 C-49.15941437 104.88548065 -49.45945374 104.1772113 -49.76858521 103.44747925 C-50.41530898 101.92369313 -51.0668057 100.40192558 -51.72259521 98.88201904 C-53.12322895 95.63467557 -54.4998606 92.37734509 -55.87753296 89.12020874 C-56.58071571 87.45781594 -57.28500615 85.79589125 -57.99038696 84.13442993 C-61.04991161 76.91914713 -63.98654242 69.66063659 -66.875 62.375 C-67.82500938 59.98286974 -68.77555033 57.59095053 -69.7265625 55.19921875 C-69.97347839 54.57817764 -70.22039429 53.95713654 -70.47479248 53.317276 C-72.80036521 47.4791289 -75.16035035 41.65507796 -77.5234375 35.83203125 C-78.10924088 34.38805969 -78.10924088 34.38805969 -78.70687866 32.91491699 C-80.27715925 29.04524061 -81.8478919 25.17575308 -83.42181396 21.30755615 C-84.51702395 18.61577599 -85.61022206 15.92318625 -86.703125 13.23046875 C-87.03686127 12.41222122 -87.37059753 11.59397369 -87.71444702 10.75093079 C-90 5.11339344 -90 5.11339344 -90 4 C-81.09 4 -72.18 4 -63 4 C-62.67 3.34 -62.34 2.68 -62 2 C-59.41620313 8.99967639 -56.83352827 15.99976598 -54.25212955 23.00032711 C-53.05230325 26.25406836 -51.85214824 29.50768741 -50.65112305 32.76098633 C-49.25723947 36.53688119 -47.86440514 40.31316154 -46.47265625 44.08984375 C-46.24318928 44.71252514 -46.01372231 45.33520653 -45.77730179 45.97675705 C-42.0731666 56.03385102 -38.42091016 66.10890412 -34.81300354 76.20091248 C-34.47051071 77.15756302 -34.12801788 78.11421356 -33.77514648 79.09985352 C-33.47897934 79.92969254 -33.18281219 80.75953156 -32.87767029 81.61451721 C-31.9645936 84.09623357 -30.99316687 86.54935883 -30 89 C-29.65445068 87.92782227 -29.30890137 86.85564453 -28.95288086 85.75097656 C-22.01986393 64.25991588 -14.97939965 42.80974931 -7.6875 21.4375 C-7.35781219 20.46985718 -7.02812439 19.50221436 -6.68844604 18.50524902 C-5.75655855 15.77233411 -4.82227033 13.04025627 -3.88671875 10.30859375 C-3.60818054 9.49287399 -3.32964233 8.67715424 -3.04266357 7.8367157 C-1.11698995 2.2339799 -1.11698995 2.2339799 0 0 Z " fill="#01787D" transform="translate(2487,388)"/>
<path d="M0 0 C0.87366211 0.04664795 1.74732422 0.0932959 2.64746094 0.14135742 C12.70296684 0.77890107 21.35796025 2.8258336 30.1875 7.75 C28.42286928 13.85737442 26.49192525 19.82433507 24.1875 25.75 C20.66393334 25.14183992 17.611679 24.17431065 14.3125 22.8125 C2.19412163 18.37180565 -11.58992317 16.86616083 -23.734375 21.98046875 C-29.98619206 25.43006603 -34.27768824 29.28644117 -36.62109375 36.1015625 C-38.43986725 43.39924995 -37.59073996 49.19352008 -34.25 55.875 C-27.49701692 63.84005696 -19.53119539 67.31917808 -9.94384766 70.93017578 C5.37167743 76.82130215 22.68417849 83.91350202 30.53125 99.40234375 C35.63093883 111.80551551 36.66082409 127.49686662 31.56640625 140.08203125 C24.84341918 153.08996375 15.2082111 160.96647386 1.43359375 165.78515625 C-19.84340586 172.10936672 -44.19907938 169.0553566 -63.8125 158.75 C-63.2378379 153.96357393 -61.83004357 150.21211213 -59.75 145.875 C-59.20214844 144.72257813 -58.65429688 143.57015625 -58.08984375 142.3828125 C-57.66832031 141.51398438 -57.24679687 140.64515625 -56.8125 139.75 C-52.86585182 141.00759567 -49.14209385 142.47227004 -45.375 144.1875 C-30.75258466 150.32709799 -15.91015262 151.71956525 -0.8125 146.75 C5.7129017 143.83807553 9.47548311 140.02153906 12.3125 133.4609375 C14.87037628 125.53608865 14.94101663 118.27058387 11.1875 110.75 C4.34948306 99.04294868 -9.53146847 94.38167121 -21.46630859 89.34741211 C-36.44077252 83.00710766 -49.30486554 75.82485333 -56.8125 60.75 C-61.1963714 48.57776133 -60.93558729 36.90801119 -55.59375 25.04296875 C-49.03035526 13.17416327 -37.91191502 6.0502627 -25.23046875 1.90625 C-23.0894204 1.39629803 -20.99071673 1.05894306 -18.8125 0.75 C-18.1417041 0.65477051 -17.4709082 0.55954102 -16.77978516 0.46142578 C-11.13022938 -0.24916916 -5.68108738 -0.30564206 0 0 Z " fill="#01787D" transform="translate(1771.8125,340.25)"/>
<path d="M0 0 C1.69527832 0.00809692 1.69527832 0.00809692 3.42480469 0.01635742 C14.88982754 0.22348758 25.01552423 2.02563327 35.25 7.4375 C33.48536928 13.54487442 31.55442525 19.51183507 29.25 25.4375 C24.60168534 24.6305593 20.4524614 23.07202276 16.06640625 21.375 C5.20189452 17.75851898 -9.12515157 17.68537222 -19.62109375 22.31640625 C-25.95729619 25.65308533 -28.90102461 29.98055578 -31.75 36.4375 C-33.58991278 43.30650771 -32.34355579 49.42745018 -29.0625 55.625 C-21.32069259 65.04071172 -10.88797438 68.72491373 0.23828125 72.96875 C14.24333634 78.32477081 29.6373659 86.12309206 36.25 100.4375 C41.23584686 112.22589905 41.23750817 128.02493601 36.50390625 139.8671875 C30.17195369 152.84670396 20.77803976 160.49159936 7.25 165.4375 C-13.95491559 172.20774413 -37.37031027 168.91189416 -57.11328125 159.28515625 C-57.92345703 158.86556641 -57.92345703 158.86556641 -58.75 158.4375 C-58.1753379 153.65107393 -56.76754357 149.89961213 -54.6875 145.5625 C-54.13964844 144.41007813 -53.59179688 143.25765625 -53.02734375 142.0703125 C-52.60582031 141.20148438 -52.18429687 140.33265625 -51.75 139.4375 C-48.93951159 140.54887184 -46.14892813 141.69292084 -43.3671875 142.875 C-28.19540661 149.26588756 -11.65204049 152.90612664 4.25 146.4375 C11.2567895 143.02701899 15.40926588 138.72956303 18.25 131.4375 C20.02093282 123.95644406 19.59688203 117.37032706 16.25 110.4375 C8.74704111 99.01632925 -5.02674889 93.92875633 -17.234375 89.04296875 C-31.33357087 83.35629308 -45.51986983 74.99993632 -52.0078125 60.53125 C-55.9384944 49.44258947 -55.72632923 38.47815883 -51.75 27.4375 C-45.81491264 15.52022141 -37.10878006 8.21622829 -24.75 3.4375 C-16.45657011 0.83013108 -8.6705456 -0.07985004 0 0 Z " fill="#01787D" transform="translate(1766.75,580.5625)"/>
<path d="M0 0 C7.59 0 15.18 0 23 0 C23 39.27 23 78.54 23 119 C16.73 119 10.46 119 4 119 C2.21005262 117.21005262 2.66150137 114.48790444 2.5 112.0625 C2.32264916 107.87832585 2.32264916 107.87832585 1 104 C0.61070312 104.50789062 0.22140625 105.01578125 -0.1796875 105.5390625 C-7.73709415 114.83780708 -17.29330205 119.6691362 -29 122 C-40.32141849 123.15814093 -50.86373365 121.8305737 -60.375 115.25 C-70.7931368 106.57900416 -75.39956237 94.17429311 -77 81 C-77.34459526 74.88961402 -77.23386823 68.76173476 -77.1953125 62.64453125 C-77.191575 60.889055 -77.18873152 59.13357663 -77.18673706 57.37809753 C-77.17915856 52.7931018 -77.15956084 48.20823598 -77.1373291 43.62329102 C-77.11674498 38.93051917 -77.10770866 34.23772601 -77.09765625 29.54492188 C-77.07630858 20.36321546 -77.04117469 11.18163893 -77 2 C-69.41 2 -61.82 2 -54 2 C-53.9906543 4.23418701 -53.98130859 6.46837402 -53.97167969 8.77026367 C-53.93772999 16.1983231 -53.88208272 23.62610996 -53.81609726 31.05395031 C-53.77678992 35.55217517 -53.74452015 40.05020916 -53.72900391 44.54858398 C-53.71372595 48.89956407 -53.67908672 53.25001883 -53.63169098 57.60076332 C-53.61699095 59.25066848 -53.60896561 60.9006487 -53.60811615 62.55061913 C-53.59641224 73.89751908 -53.35389429 85.67571479 -46.1875 95.125 C-40.96536451 100.32134716 -36.30977309 101.190282 -29.125 101.4375 C-22.89258825 101.29841323 -18.30271456 100.25445571 -13 97 C-12.113125 96.46375 -11.22625 95.9275 -10.3125 95.375 C-4.09037561 88.98471009 -0.86188454 82.09774763 -0.79467773 73.33740234 C-0.78477814 72.54707108 -0.77487854 71.75673981 -0.76467896 70.94245911 C-0.73302878 68.3236493 -0.70829267 65.70482134 -0.68359375 63.0859375 C-0.66302726 61.27275108 -0.64203087 59.45956948 -0.62062073 57.64639282 C-0.56536858 52.86901758 -0.51597318 48.09159885 -0.46777344 43.31414795 C-0.41758134 38.44116332 -0.36188333 33.56824202 -0.30664062 28.6953125 C-0.1990206 19.13026037 -0.09809283 9.56515459 0 0 Z " fill="#01787D" transform="translate(3119,627)"/>
<path d="M0 0 C10.71563822 7.85552271 15.91895416 19.2802803 18.0625 32.1875 C18.56284454 38.46950577 18.41365192 44.78213732 18.35546875 51.078125 C18.34986152 52.87701053 18.34559676 54.6759007 18.34260559 56.47479248 C18.33124543 61.16999342 18.30185611 65.8649083 18.26849365 70.55999756 C18.23760054 75.36678195 18.22405946 80.17361333 18.20898438 84.98046875 C18.17697637 94.3829573 18.12428246 103.78515992 18.0625 113.1875 C10.4725 113.1875 2.8825 113.1875 -4.9375 113.1875 C-4.9468457 110.91254639 -4.95619141 108.63759277 -4.96582031 106.29370117 C-4.99972439 98.74189685 -5.05534721 91.19036194 -5.12140274 83.63877392 C-5.16076021 79.06426331 -5.19300582 74.48994183 -5.20849609 69.9152832 C-5.22374049 65.49299246 -5.25832221 61.07122206 -5.30580902 56.6491642 C-5.3205431 54.96969461 -5.32853639 53.29015069 -5.32938385 51.61061668 C-5.34098538 40.13764623 -5.81803473 28.16164583 -13.9375 19.1875 C-20.06696389 14.72970808 -26.0983935 13.3159127 -33.62109375 13.64453125 C-41.0830682 14.86622082 -47.72377983 18.10987092 -52.5 24.0625 C-56.77365156 30.21336299 -58.38519655 36.78313626 -58.36987305 44.1640625 C-58.3800647 44.91625565 -58.39025635 45.66844879 -58.40075684 46.44343567 C-58.43066036 48.89986843 -58.44011758 51.35590986 -58.44921875 53.8125 C-58.46608231 55.52743808 -58.48423479 57.24236392 -58.50361633 58.95727539 C-58.55094058 63.44850847 -58.58086325 67.93969192 -58.60705566 72.43109131 C-58.63695029 77.02317093 -58.68344987 81.61507989 -58.72851562 86.20703125 C-58.81434872 95.20045076 -58.88024585 104.1938531 -58.9375 113.1875 C-66.5275 113.1875 -74.1175 113.1875 -81.9375 113.1875 C-81.96255615 109.99852051 -81.9876123 106.80954102 -82.01342773 103.52392578 C-82.09704641 92.9667205 -82.18571324 82.40956191 -82.27683926 71.8524189 C-82.33191403 65.45403825 -82.3853086 59.05565292 -82.43481445 52.65722656 C-82.48268672 46.47802825 -82.53503641 40.29888237 -82.59044075 34.11974716 C-82.61076115 31.76676623 -82.62949055 29.41377098 -82.64657402 27.06076431 C-82.67084791 23.75546368 -82.70086897 20.45026002 -82.73217773 17.14501953 C-82.7379332 16.18044327 -82.74368866 15.215867 -82.74961853 14.22206116 C-82.81462091 8.15226356 -83.25642804 2.22019294 -83.9375 -3.8125 C-77.3375 -3.8125 -70.7375 -3.8125 -63.9375 -3.8125 C-63.2775 1.4675 -62.6175 6.7475 -61.9375 12.1875 C-60.9475 10.99125 -59.9575 9.795 -58.9375 8.5625 C-43.98282384 -8.36619342 -19.40469471 -12.12387123 0 0 Z " fill="#01787D" transform="translate(2111.9375,633.8125)"/>
<path d="M0 0 C7.26 0 14.52 0 22 0 C22 39.27 22 78.54 22 119 C15.73 119 9.46 119 3 119 C1.25544201 115.51088401 1.53762734 111.50258205 1.28125 107.65234375 C1.28948002 105.07994595 1.28948002 105.07994595 0 104 C-0.36609375 104.49628906 -0.7321875 104.99257813 -1.109375 105.50390625 C-8.70731674 115.03751411 -19.0072044 120.26892027 -31 122 C-42.94801212 123.0917746 -54.54636597 120.69773517 -64 113 C-77.51589517 98.36361611 -78.31406342 80.48540349 -78.1953125 61.64453125 C-78.191575 59.889055 -78.18873152 58.13357663 -78.18673706 56.37809753 C-78.17915856 51.7931018 -78.15956084 47.20823598 -78.1373291 42.62329102 C-78.11674498 37.93051917 -78.10770866 33.23772601 -78.09765625 28.54492188 C-78.07630858 19.36321546 -78.04117469 10.18163893 -78 1 C-70.41 1 -62.82 1 -55 1 C-54.98598145 4.30584106 -54.98598145 4.30584106 -54.97167969 7.6784668 C-54.93772626 15.00674355 -54.88207703 22.33474412 -54.81609726 29.66279888 C-54.77679399 34.10048974 -54.74452228 38.53798725 -54.72900391 42.97583008 C-54.71372319 47.26845879 -54.67907934 51.56055533 -54.63169098 55.85294533 C-54.61699372 57.48052118 -54.60896578 59.10817306 -54.60811615 60.73581505 C-54.59575546 72.55528074 -54.20277174 85.62540372 -46 95 C-39.5985634 100.47195401 -34.46621278 101.37512105 -26.09765625 101.2734375 C-18.00554472 100.55912753 -11.25130367 96.07107732 -6 90 C-1.90582659 83.10143613 -0.86058751 76.38816408 -0.79467773 68.45581055 C-0.78477814 67.71380905 -0.77487854 66.97180756 -0.76467896 66.20732117 C-0.73321966 63.76715225 -0.70836846 61.32696391 -0.68359375 58.88671875 C-0.66301076 57.18992115 -0.64201394 55.49312852 -0.62062073 53.79634094 C-0.56553896 49.33958982 -0.51606864 44.8827935 -0.46777344 40.42596436 C-0.4174567 35.87443031 -0.36182383 31.32296156 -0.30664062 26.77148438 C-0.19922909 17.84771007 -0.09823818 8.92388001 0 0 Z " fill="#01787D" transform="translate(2142,387)"/>
<path d="M0 0 C1.051875 0.721875 2.10375 1.44375 3.1875 2.1875 C18.33068028 17.33068028 20 36.43074132 20 57 C-7.06 57 -34.12 57 -62 57 C-59.45078957 74.5721488 -59.45078957 74.5721488 -49 88 C-34.15177701 97.42411896 -18.81290748 97.2713794 -2 94 C0.43196755 93.29182763 2.77645311 92.51197757 5.1328125 91.5859375 C7 91 7 91 11 91 C11.99 96.28 12.98 101.56 14 107 C-6.40464025 115.77874057 -30.02193697 118.73368027 -51.25390625 110.78125 C-65.03434916 104.44541418 -74.21998448 94.0402376 -79.921875 80.22265625 C-86.35428542 60.99534249 -84.66709264 39.0416708 -76.3125 20.75 C-69.08242335 7.28647381 -58.75540301 -2.5374997 -44 -7 C-28.51319103 -10.83879826 -13.21659793 -9.53850945 0 0 Z M-50.9140625 17.82421875 C-57.41174212 24.86106753 -62 33.22233139 -62 43 C-41.87 43 -21.74 43 -1 43 C-2.07569687 32.24303126 -3.96561236 22.75852884 -12 15 C-24.57940058 6.25100514 -39.84618687 7.27585565 -50.9140625 17.82421875 Z " fill="#01787D" transform="translate(1912,394)"/>
<path d="M0 0 C9.03702335 8.13332102 14.15418905 19.02803917 15.18054581 31.12860298 C15.24271512 33.27136396 15.24803826 35.40552786 15.22705078 37.54907227 C15.22734283 38.35017929 15.22763489 39.15128632 15.22793579 39.97666931 C15.22655706 42.59003027 15.21106552 45.20309592 15.1953125 47.81640625 C15.19157718 49.64200179 15.18873266 51.46759936 15.18673706 53.29319763 C15.17914149 58.07221113 15.15952847 62.85110092 15.1373291 67.63006592 C15.11678238 72.51703214 15.10771655 77.40401856 15.09765625 82.29101562 C15.07627834 91.86073987 15.04112989 101.43034024 15 111 C7.74 111 0.48 111 -7 111 C-7.01458252 108.92251465 -7.02916504 106.8450293 -7.04418945 104.70458984 C-7.09486206 97.78745558 -7.16151117 90.87053877 -7.23571491 83.953619 C-7.28016104 79.76597447 -7.31947129 75.57842148 -7.34643555 71.390625 C-7.37272888 67.33795746 -7.41330757 63.28564728 -7.46318626 59.23320389 C-7.47968123 57.69855877 -7.49130228 56.1638521 -7.49761391 54.62913132 C-7.4709475 34.24642047 -7.4709475 34.24642047 -17 17 C-22.89210835 12.54678442 -28.73024695 11.22921936 -36.04296875 11.5859375 C-43.24393352 12.59426282 -49.52437082 15.2048002 -54.35359192 20.77874756 C-61.65180336 30.62513386 -61.73947551 41.11770421 -61.70703125 52.796875 C-61.72017394 54.48368088 -61.73548595 56.1704711 -61.75285339 57.85723877 C-61.79241626 62.25647418 -61.80287511 66.65529524 -61.80688477 71.0546875 C-61.81627088 75.56002139 -61.85371812 80.06511727 -61.88867188 84.5703125 C-61.95295499 93.38025408 -61.98383515 102.18983862 -62 111 C-69.59 111 -77.18 111 -85 111 C-85.33 72.39 -85.66 33.78 -86 -6 C-79.73 -6 -73.46 -6 -67 -6 C-65.9458482 -2.83754459 -65.68724328 -0.13051782 -65.4375 3.1875 C-65.31181641 4.81751953 -65.31181641 4.81751953 -65.18359375 6.48046875 C-65.12300781 7.31191406 -65.06242187 8.14335938 -65 9 C-64.319375 8.29875 -63.63875 7.5975 -62.9375 6.875 C-45.58984237 -10.27882906 -20.65534259 -15.68021855 0 0 Z " fill="#02787D" transform="translate(3260,636)"/>
<path d="M0 0 C1.23748592 1.04990911 2.44667406 2.13410192 3.625 3.25 C4.54732422 4.09498047 4.54732422 4.09498047 5.48828125 4.95703125 C14.01719432 13.6320499 16.79525473 25.53001416 16.73852539 37.3449707 C16.73867142 38.14549362 16.73881744 38.94601654 16.7389679 39.77079773 C16.73827355 42.4058202 16.73050356 45.04077119 16.72265625 47.67578125 C16.72079037 49.50709494 16.71936727 51.33840914 16.71836853 53.16972351 C16.71455672 57.98163235 16.70473785 62.79351084 16.69366455 67.60540771 C16.68342169 72.51883534 16.67886475 77.43226789 16.67382812 82.34570312 C16.66311437 91.98048421 16.64552839 101.61523483 16.625 111.25 C10.355 111.25 4.085 111.25 -2.375 111.25 C-3.57772819 108.84454362 -3.47571472 107.30003047 -3.4375 104.625 C-3.42847656 103.80773437 -3.41945313 102.99046875 -3.41015625 102.1484375 C-3.39855469 101.52195312 -3.38695313 100.89546875 -3.375 100.25 C-3.96925781 100.76949219 -4.56351563 101.28898438 -5.17578125 101.82421875 C-16.52919009 111.37662028 -28.070136 115.82593258 -43 115.125 C-52.96990549 114.0767901 -60.56865029 110.68440343 -67.375 103.25 C-75.00359191 93.67187905 -76.37090501 84.33779704 -75.375 72.25 C-72.84137078 60.6903167 -66.15761884 52.60558677 -56.375 46.25 C-43.33512246 38.5794838 -26.27743734 36.02997434 -11.3125 36.1875 C-9.62447266 36.20103516 -9.62447266 36.20103516 -7.90234375 36.21484375 C-6.65130859 36.23224609 -6.65130859 36.23224609 -5.375 36.25 C-5.77453083 33.8709755 -6.19388905 31.49833244 -6.625 29.125 C-6.73457031 28.45984375 -6.84414062 27.7946875 -6.95703125 27.109375 C-7.84425229 22.34639887 -9.51000291 19.23968603 -12.375 15.25 C-12.375 14.59 -12.375 13.93 -12.375 13.25 C-13.69838632 12.56379969 -15.03449948 11.90213539 -16.375 11.25 C-17.05175781 10.90453125 -17.72851562 10.5590625 -18.42578125 10.203125 C-22.59042014 8.85720197 -26.52216352 8.86685091 -30.875 8.875 C-32.20760864 8.87741699 -32.20760864 8.87741699 -33.56713867 8.87988281 C-43.94757004 9.07174727 -52.5396297 11.75243626 -61.375 17.25 C-62.035 17.25 -62.695 17.25 -63.375 17.25 C-64.05179658 15.524773 -64.71602 13.79461061 -65.375 12.0625 C-65.74625 11.09957031 -66.1175 10.13664063 -66.5 9.14453125 C-67.35136772 6.32817642 -67.54572647 4.16835561 -67.375 1.25 C-48.33718197 -8.57973053 -18.69351209 -12.88479364 0 0 Z M-50.25 63 C-54.84836775 68.48266924 -56.6223468 74.5194925 -56.25 81.640625 C-55.30409183 87.43431255 -52.82481016 91.44912049 -48.375 95.25 C-41.96124474 99.14855712 -35.17565146 99.10808746 -27.94921875 97.81640625 C-20.97562258 95.87728883 -15.62039144 91.8715991 -11.80078125 85.7109375 C-8.94127156 80.15578687 -7.23906293 75.54367878 -7.27734375 69.265625 C-7.28056641 68.33105469 -7.28378906 67.39648438 -7.28710938 66.43359375 C-7.29548828 65.46550781 -7.30386719 64.49742187 -7.3125 63.5 C-7.31701172 62.51644531 -7.32152344 61.53289062 -7.32617188 60.51953125 C-7.33793517 58.09629209 -7.35437316 55.67317727 -7.375 53.25 C-21.83656952 52.77728526 -38.95719339 52.46004716 -50.25 63 Z " fill="#01787D" transform="translate(2367.375,635.75)"/>
<path d="M0 0 C9.4717102 7.97302187 15.69632976 17.72518789 16.80626297 30.30429077 C16.86842879 32.46449589 16.8728426 34.6163491 16.85205078 36.77734375 C16.85234283 37.58805832 16.85263489 38.39877289 16.85293579 39.23405457 C16.85155431 41.88531601 16.83604944 44.5362883 16.8203125 47.1875 C16.81657816 49.03694505 16.81373318 50.8863921 16.81173706 52.73583984 C16.80413377 57.5822708 16.78451392 62.42858016 16.7623291 67.27496338 C16.74179922 72.22886511 16.73272012 77.18278666 16.72265625 82.13671875 C16.70126467 91.8412076 16.66610973 101.54557462 16.625 111.25 C10.355 111.25 4.085 111.25 -2.375 111.25 C-3.365 105.805 -3.365 105.805 -4.375 100.25 C-5.695 101.4875 -7.015 102.725 -8.375 104 C-18.33750664 112.83821122 -29.20524916 115.10285195 -42.375 115.25 C-52.08050169 114.51287329 -61.19781917 110.45324264 -67.83984375 103.27734375 C-74.87729351 93.98361239 -76.09226629 84.63328168 -75.375 73.25 C-73.56608688 62.44251059 -67.78492596 54.5510761 -59.14453125 48.03515625 C-43.46617162 37.92935886 -23.59560209 35.69692945 -5.375 36.25 C-7.08543691 23.80002192 -7.08543691 23.80002192 -13.375 13.25 C-18.93889779 9.3658909 -24.28326733 8.57155455 -30.9375 8.6875 C-32.23989624 8.69849731 -32.23989624 8.69849731 -33.56860352 8.7097168 C-43.84933716 9.01661846 -52.56091093 11.94911046 -61.375 17.25 C-62.035 17.25 -62.695 17.25 -63.375 17.25 C-64.07545456 15.33802961 -64.759919 13.42019565 -65.4375 11.5 C-65.82035156 10.43265625 -66.20320313 9.3653125 -66.59765625 8.265625 C-67.7141631 3.9342517 -67.7141631 3.9342517 -66.375 1.25 C-50.31867283 -11.09833005 -16.41196898 -11.31220461 0 0 Z M-50.8125 65.6875 C-54.01083529 70.93276987 -54.90768231 76.17742161 -54.375 82.25 C-53.0139735 87.8110692 -50.93639849 91.62161483 -46.375 95.25 C-40.52869832 98.64085498 -35.05700877 99.07607251 -28.375 98.25 C-20.19768994 96.06468438 -13.967912 92.28942077 -9.625 84.875 C-5.67610909 77.63536666 -5.09901356 70.87866028 -5.25 62.8125 C-5.25902344 61.89017578 -5.26804687 60.96785156 -5.27734375 60.01757812 C-5.3007234 57.76144191 -5.33349084 55.50586316 -5.375 53.25 C-22.08040909 52.55394129 -38.30411428 53.17911428 -50.8125 65.6875 Z " fill="#01787D" transform="translate(1981.375,635.75)"/>
<path d="M0 0 C-0.64270983 5.9129304 -2.19003784 11.34244531 -4 17 C-7.14224115 16.43363418 -9.98421001 15.70788957 -12.9375 14.5 C-21.15540571 11.35695771 -30.03832762 10.56284621 -38.2734375 14.0078125 C-41.56658133 15.90025262 -43.3392325 18.678465 -45 22 C-45.27407385 24.00555501 -45.27407385 24.00555501 -45.3125 26.25 C-45.34988281 26.99765625 -45.38726563 27.7453125 -45.42578125 28.515625 C-44.80043877 32.16441229 -43.35212391 34.15328823 -41 37 C-38.55633975 38.50864471 -36.34118908 39.70865197 -33.75 40.875 C-32.31770249 41.55858151 -30.885411 42.24217563 -29.453125 42.92578125 C-27.96910715 43.61795375 -26.4847313 44.30935921 -25 45 C-7.18968601 53.36702083 -7.18968601 53.36702083 -1 60 C-0.236875 60.804375 0.52625 61.60875 1.3125 62.4375 C7.30600093 71.53874215 7.20301445 82.2725288 5.56640625 92.78515625 C3.3041249 100.75232099 -1.984767 107.04291251 -8.9375 111.375 C-24.98843419 120.16769688 -43.17160592 119.87223952 -60.51953125 115.265625 C-64.36143687 113.86856841 -67.5156767 112.12360805 -71 110 C-70.35720991 107.20760027 -69.71091335 104.41609416 -69.0625 101.625 C-68.88009766 100.8309375 -68.69769531 100.036875 -68.50976562 99.21875 C-68.33251953 98.45820312 -68.15527344 97.69765625 -67.97265625 96.9140625 C-67.72914429 95.8614624 -67.72914429 95.8614624 -67.48071289 94.78759766 C-67 93 -67 93 -66 91 C-62.77697295 92.04748379 -59.67173432 93.1432432 -56.5625 94.5 C-45.73565239 98.54451204 -33.68168944 99.36073913 -23 94.6875 C-19.25167674 91.52485225 -17.88696822 88.39135442 -17.125 83.625 C-16.76647804 79.03286768 -17.60845035 76.01163168 -20 72 C-24.07502998 68.2156199 -27.87222501 65.89050404 -33 63.625 C-34.32605528 63.0233119 -35.65156348 62.42041684 -36.9765625 61.81640625 C-37.97864746 61.36418701 -37.97864746 61.36418701 -39.00097656 60.90283203 C-51.42057237 55.29368874 -62.61900813 50.22827168 -68 37 C-70.60827892 29.17516325 -69.63028619 20.59858286 -66.1875 13.2109375 C-60.61836206 2.84208199 -52.20719318 -2.52559194 -41 -6 C-26.30940849 -9.02980992 -13.16572946 -6.58286473 0 0 Z " fill="#01787D" transform="translate(2691,634)"/>
<path d="M0 0 C0 9.24 0 18.48 0 28 C10.23 28 20.46 28 31 28 C31 33.61 31 39.22 31 45 C20.77 45 10.54 45 0 45 C0.06184375 57.5773683 0.06184375 57.5773683 0.16015625 70.15429688 C0.20837584 75.28930931 0.25246361 80.42410958 0.27099609 85.55932617 C0.28621955 89.70281988 0.32076461 93.8457559 0.36830902 97.98900032 C0.38306451 99.56405838 0.39103765 101.13919609 0.39188385 102.71432304 C0.30359581 114.91819325 0.30359581 114.91819325 5 126 C8.59090838 129.39680522 12.11903729 129.32098588 16.83789062 129.26367188 C17.65451172 129.23853516 18.47113281 129.21339844 19.3125 129.1875 C20.14845703 129.17396484 20.98441406 129.16042969 21.84570312 129.14648438 C23.89741498 129.11131217 25.94879275 129.05751048 28 129 C28.495 136.92 28.495 136.92 29 145 C22.6300645 147.40146568 17.29425309 148.52493238 10.5 148.4375 C9.66557373 148.42920166 8.83114746 148.42090332 7.97143555 148.41235352 C1.91814219 148.24564025 -2.96971896 147.59760606 -8 144 C-9.07121094 143.23623047 -9.07121094 143.23623047 -10.1640625 142.45703125 C-18.66037602 135.70632397 -20.33414847 128.69442122 -21.59857178 118.20748901 C-22.32613254 111.29641267 -22.24639059 104.381855 -22.1953125 97.44140625 C-22.19156919 95.91584969 -22.18872848 94.39029068 -22.18673706 92.86473083 C-22.17920413 88.90450059 -22.15964842 84.94442374 -22.1373291 80.98425293 C-22.11664399 76.92116367 -22.10768756 72.85804893 -22.09765625 68.79492188 C-22.07638953 60.86320399 -22.04129573 52.93163891 -22 45 C-27.94 45 -33.88 45 -40 45 C-40 39.39 -40 33.78 -40 28 C-34.06 28 -28.12 28 -22 28 C-22 20.74 -22 13.48 -22 6 C-18.926875 5.01 -15.85375 4.02 -12.6875 3 C-11.72287842 2.68675781 -10.75825684 2.37351562 -9.7644043 2.05078125 C-9.00039307 1.80714844 -8.23638184 1.56351562 -7.44921875 1.3125 C-6.66893311 1.06113281 -5.88864746 0.80976563 -5.0847168 0.55078125 C-3 0 -3 0 0 0 Z " fill="#01797D" transform="translate(2360,362)"/>
<path d="M0 0 C0 9.24 0 18.48 0 28 C10.23 28 20.46 28 31 28 C31 33.61 31 39.22 31 45 C20.77 45 10.54 45 0 45 C0.06180997 57.42405134 0.06180997 57.42405134 0.16015625 69.84765625 C0.20840005 74.91911095 0.25247877 79.99034999 0.27099609 85.06201172 C0.28620513 89.15363413 0.32072493 93.24469013 0.36830902 97.33605957 C0.38307928 98.89240581 0.39103851 100.44883293 0.39188385 102.00524902 C0.30869346 114.76599414 0.30869346 114.76599414 6.44683838 125.63549805 C9.60053779 128.40612343 12.94702421 128.13486521 16.9375 128.125 C17.97777344 128.12757813 19.01804687 128.13015625 20.08984375 128.1328125 C22.58233958 128.01906101 24.60573485 127.61106535 27 127 C29.05922402 129.05922402 28.41427579 133.21708124 28.5625 136.0625 C28.60568359 136.82111328 28.64886719 137.57972656 28.69335938 138.36132812 C28.79973633 140.24065438 28.90039934 142.12030244 29 144 C17.73062305 147.93608176 5.63659113 149.08659235 -5.5625 144.3203125 C-13.08822127 140.24388015 -17.55547026 135.19624581 -20 127 C-22.03430673 116.78822477 -22.27012153 106.67815609 -22.1953125 96.3203125 C-22.19157049 94.77090642 -22.18872916 93.22149794 -22.18673706 91.67208862 C-22.17919394 87.64444142 -22.1596287 83.61694438 -22.1373291 79.58935547 C-22.1166667 75.45933054 -22.10769228 71.32928075 -22.09765625 67.19921875 C-22.07637141 59.13273677 -22.0412685 51.06640451 -22 43 C-27.94 43 -33.88 43 -40 43 C-40 37.72 -40 32.44 -40 27 C-34.06 27 -28.12 27 -22 27 C-22 19.74 -22 12.48 -22 5 C-16.66666667 3.66666667 -11.33333333 2.33333333 -6 1 C-5.30100586 0.81493896 -4.60201172 0.62987793 -3.88183594 0.43920898 C-2 0 -2 0 0 0 Z " fill="#01787D" transform="translate(1861,602)"/>
<path d="M0 0 C-0.61509762 2.64850284 -1.24149408 5.29339905 -1.875 7.9375 C-2.04902344 8.69224609 -2.22304687 9.44699219 -2.40234375 10.22460938 C-2.87244065 12.16593545 -3.4304297 14.08549544 -4 16 C-4.66 16.33 -5.32 16.66 -6 17 C-7.7421875 16.29296875 -7.7421875 16.29296875 -9.875 15.1875 C-20.34615247 10.37010078 -32.15838603 9.69813768 -43.20703125 12.94140625 C-54.74842122 17.34020016 -61.82829882 24.57886408 -67.2578125 35.5390625 C-72.00369575 47.32080063 -71.99778109 62.74371555 -67.2578125 74.52734375 C-62.27271616 84.3272381 -54.70311496 91.59114149 -44.3046875 95.2890625 C-33.56144956 98.60307827 -21.97337443 97.49017709 -11.625 93.3125 C-8.01729386 92.00626157 -7.38147259 91.89022155 -4 93 C-3.32844651 95.26949102 -2.6626037 97.5403961 -2 99.8125 C-1.62875 101.07707031 -1.2575 102.34164062 -0.875 103.64453125 C0 107 0 107 0 110 C-18.81023196 117.0969007 -41.82400904 119.57518033 -60.8046875 111.453125 C-75.66250525 104.59596934 -84.25999643 94.329186 -90 79 C-95.38371049 61.08371756 -93.59347765 41.98434761 -86 25 C-83.97567637 21.35931592 -81.6737315 18.18953009 -79 15 C-77.95585938 13.73542969 -77.95585938 13.73542969 -76.890625 12.4453125 C-58.93144365 -7.38210584 -23.5927941 -13.09400073 0 0 Z " fill="#01787D" transform="translate(2042,393)"/>
<path d="M0 0 C-0.64270983 5.9129304 -2.19003784 11.34244531 -4 17 C-4.78375 16.731875 -5.5675 16.46375 -6.375 16.1875 C-7.57125 15.795625 -8.7675 15.40375 -10 15 C-10.65742188 14.73574219 -11.31484375 14.47148438 -11.9921875 14.19921875 C-22.97196481 10.19103015 -36.54062529 10.38925496 -47.38671875 14.6796875 C-58.26324976 20.17485564 -63.92517201 28.50297581 -68.23828125 39.640625 C-72.0601932 51.47875226 -70.89663673 64.70123884 -66 76 C-61.15286939 85.39310813 -54.27758838 91.60121918 -44.39453125 95.2734375 C-32.78167564 98.79707721 -20.47675016 97.51535815 -9.34375 92.8984375 C-7 92 -7 92 -4 92 C-3.29853686 94.22481229 -2.61434046 96.45507368 -1.9375 98.6875 C-1.55464844 99.92886719 -1.17179687 101.17023438 -0.77734375 102.44921875 C-0.03214242 105.8531786 -0.00148935 107.71559076 -1 111 C-3.16434843 111.65356027 -5.33161437 112.2974618 -7.5 112.9375 C-8.7065625 113.29714844 -9.913125 113.65679688 -11.15625 114.02734375 C-28.95892677 118.5322894 -49.30251576 117.52236655 -65.875 109.375 C-79.36424405 101.30173815 -87.03108828 88.89868398 -91 74 C-94.89122721 56.1931258 -92.42656985 36.33645461 -83.09814453 20.69775391 C-73.93654847 6.53373901 -60.24816261 -1.17563194 -44 -5 C-29.28028245 -7.94394351 -13.62830256 -6.19783951 0 0 Z " fill="#01787D" transform="translate(3393,633)"/>
<path d="M0 0 C10.51916953 8.89962624 16.34231237 20.12196107 17.68359375 33.890625 C18.28104669 47.32926828 14.95010817 58.5817452 6.30078125 68.9609375 C5.72714844 69.66992188 5.15351563 70.37890625 4.5625 71.109375 C-2.96532312 79.52377258 -14.58412764 85.0226503 -25.81005859 86.17822266 C-41.36509539 87.03630982 -54.77005808 84.04167123 -67.0703125 74.03125 C-76.552697 65.30042043 -82.029761 54.29084073 -82.9453125 41.53125 C-83.44288234 26.78508915 -79.3812861 14.52211468 -69.48046875 3.48828125 C-50.27944591 -15.18284323 -21.0540932 -15.90482873 0 0 Z M-59.3046875 14.90234375 C-65.17943966 23.57459695 -67.68088337 32.99693893 -66.234375 43.48828125 C-63.98631998 53.87528 -59.16844153 61.90309096 -50.32421875 67.8359375 C-42.36253957 72.56554123 -34.8135103 74.1304233 -25.65625 72.37890625 C-16.24356535 69.96228499 -9.51950728 65.62829949 -4.04296875 57.50390625 C1.36198071 47.52674664 2.42237098 37.3578318 -0.34765625 26.39453125 C-3.42295595 17.38023533 -9.58719239 10.21639828 -18.07421875 5.8984375 C-32.65973006 -0.60716358 -49.18784573 1.88090994 -59.3046875 14.90234375 Z " fill="#01787D" transform="translate(3482.69921875,342.0390625)"/>
<path d="M0 0 C7.26 0 14.52 0 22 0 C22 56.43 22 112.86 22 171 C14.74 171 7.48 171 0 171 C0 114.57 0 58.14 0 0 Z " fill="#01797E" transform="translate(3473,576)"/>
<path d="M0 0 C3.6196875 0.0309375 3.6196875 0.0309375 7.3125 0.0625 C7.3125 6.9925 7.3125 13.9225 7.3125 21.0625 C5.1675 21.165625 3.0225 21.26875 0.8125 21.375 C-6.79555835 21.9348672 -13.31214582 22.99283532 -19.23828125 28.26953125 C-24.86939456 35.23632643 -27.81930382 43.46736514 -27.89282227 52.2878418 C-27.90767166 53.3857756 -27.90767166 53.3857756 -27.92282104 54.50588989 C-27.95440011 56.92446665 -27.97917923 59.34306304 -28.00390625 61.76171875 C-28.02447888 63.43895477 -28.04547544 65.11618564 -28.06687927 66.79341125 C-28.12206801 71.20744659 -28.17149139 75.62152846 -28.21972656 80.03564453 C-28.26996493 84.54008119 -28.32563881 89.04445028 -28.38085938 93.54882812 C-28.48840186 102.38666316 -28.58935322 111.22455562 -28.6875 120.0625 C-36.2775 120.0625 -43.8675 120.0625 -51.6875 120.0625 C-51.74284912 116.95505371 -51.79819824 113.84760742 -51.85522461 110.64599609 C-52.0394058 100.33625786 -52.22770621 90.02659775 -52.41799068 79.71697044 C-52.53314425 73.47117781 -52.64694479 67.22536683 -52.75756836 60.97949219 C-52.86453652 54.94289596 -52.97516959 48.90637667 -53.08825874 42.86989212 C-53.13060437 40.57604938 -53.17166767 38.28218257 -53.2113781 35.98829269 C-53.41438012 24.30922556 -53.69607404 12.70539974 -54.6875 1.0625 C-48.0875 1.0625 -41.4875 1.0625 -34.6875 1.0625 C-34.0275 8.3225 -33.3675 15.5825 -32.6875 23.0625 C-31.3675 20.4225 -30.0475 17.7825 -28.6875 15.0625 C-21.6501617 4.93672284 -12.26290719 -0.14771437 0 0 Z " fill="#01787D" transform="translate(2468.6875,628.9375)"/>
<path d="M0 0 C0 7.26 0 14.52 0 22 C-3.4340625 22.12375 -3.4340625 22.12375 -6.9375 22.25 C-15.50657078 22.75514945 -21.72301689 24.30635735 -27.8125 30.5625 C-35.49152441 40.53572187 -35.60312987 51.43648154 -35.609375 63.48046875 C-35.62438379 65.14628179 -35.64111653 66.81208011 -35.65948486 68.4778595 C-35.70286821 72.82606757 -35.72309243 77.17407503 -35.73822021 81.52246094 C-35.75789688 85.97407758 -35.79985442 90.42548082 -35.83984375 94.87695312 C-35.91483111 103.58460526 -35.96324846 112.29210247 -36 121 C-43.59 121 -51.18 121 -59 121 C-59.33 81.73 -59.66 42.46 -60 2 C-53.73 2 -47.46 2 -41 2 C-38.82052348 4.17947652 -39.54662271 9.55891199 -39.39453125 12.62890625 C-39.5029448 16.10944277 -39.5029448 16.10944277 -38 19 C-37.64808594 18.49210937 -37.29617187 17.98421875 -36.93359375 17.4609375 C-30.49819274 8.48834184 -23.49947465 2.60703028 -12.5 0.25 C-8.34309095 -0.04692207 -4.16749992 0 0 0 Z " fill="#01787D" transform="translate(2256,388)"/>
<path d="M0 0 C7.59 0 15.18 0 23 0 C23 38.61 23 77.22 23 117 C15.41 117 7.82 117 0 117 C0 78.39 0 39.78 0 0 Z " fill="#01797E" transform="translate(3415,630)"/>
<path d="M0 0 C7.59 0 15.18 0 23 0 C23 38.61 23 77.22 23 117 C15.41 117 7.82 117 0 117 C0 78.39 0 39.78 0 0 Z " fill="#01787E" transform="translate(2278,390)"/>
<path d="M0 0 C0.83337891 -0.020625 1.66675781 -0.04125 2.52539062 -0.0625 C8.79612216 -0.10153957 15.71281698 0.42974036 20.62915039 4.72949219 C23.1661295 7.67786052 23.32481165 10.36656964 23.296875 14.21484375 C22.69710929 17.61134302 20.52409069 19.15609325 17.9375 21.25 C17.2775 21.91 16.6175 22.57 15.9375 23.25 C16.68 23.930625 17.4225 24.61125 18.1875 25.3125 C22.57486675 30.44984398 23.42885844 37.88018008 24.9375 44.25 C19.3275 44.25 13.7175 44.25 7.9375 44.25 C7.256875 42.4246875 7.256875 42.4246875 6.5625 40.5625 C6.27890625 39.83417969 5.9953125 39.10585938 5.703125 38.35546875 C4.9375 36.25 4.9375 36.25 4.3125 33.375 C2.54118356 30.63751096 1.43095583 30.64402515 -1.6875 29.9375 C-3.13125 29.710625 -4.575 29.48375 -6.0625 29.25 C-6.0625 35.19 -6.0625 41.13 -6.0625 47.25 C-10.6825 47.25 -15.3025 47.25 -20.0625 47.25 C-20.0625 32.07 -20.0625 16.89 -20.0625 1.25 C-13.24101888 0.56785189 -6.79936156 0.04226487 0 0 Z M-3.0625 12.25 C-3.0625 15.55 -3.0625 18.85 -3.0625 22.25 C-1.61875 22.12625 -0.175 22.0025 1.3125 21.875 C2.12460938 21.80539062 2.93671875 21.73578125 3.7734375 21.6640625 C6.14084191 21.42107412 6.14084191 21.42107412 7.9375 19.25 C7.84638062 16.71048456 7.84638062 16.71048456 6.9375 14.25 C3.2933226 11.8205484 1.22508728 12.08820425 -3.0625 12.25 Z " fill="#01787D" transform="translate(3449.0625,355.75)"/>
<path d="M0 0 C3.72459187 2.92000771 5.94553636 5.6422608 6.53515625 10.3515625 C6.57528289 19.03229226 6.57528289 19.03229226 3.234375 22.94921875 C2.595 23.71234375 1.955625 24.47546875 1.296875 25.26171875 C-3.58430368 27.95134782 -8.33340611 27.90488689 -13.765625 26.94921875 C-17.63649348 24.94037149 -19.92066343 22.25186783 -22.265625 18.63671875 C-23.277585 13.19743374 -22.51728503 8.57280441 -20.203125 3.57421875 C-14.96755118 -2.06409152 -6.88628285 -4.09825241 0 0 Z " fill="#01777C" transform="translate(2295.765625,342.05078125)"/>
<path d="M0 0 C4.43118719 2.13646525 7.2290203 4.37577522 9 9 C9.64911591 14.24100992 9.58084311 18.5857733 7.5625 23.5 C4.05488665 26.92206181 0.84211389 28.31823036 -4 29 C-8.87863752 28.81023128 -12.0945813 27.71277642 -15.9375 24.6875 C-19.0852519 20.58588389 -20.22748476 17.78715415 -20 12.625 C-19.30693529 7.50830004 -16.78965738 4.37751958 -13 1 C-9.05100663 -0.97449669 -4.30409896 -0.43770498 0 0 Z " fill="#01777C" transform="translate(3432,581)"/>
</svg>
